<svg width="50" height="50" viewBox="0 0 50 50" fill="none" xmlns="http://www.w3.org/2000/svg">
<g clip-path="url(#clip0_217_296)">
<path fill-rule="evenodd" clip-rule="evenodd" d="M36.9956 4.00118C34.7954 4.02568 32.5032 4.64872 30.3951 5.78644C28.7188 6.69119 27.1695 7.95521 25.8896 9.52074C25.7296 9.35669 25.5508 9.20889 25.4007 9.03725C19.143 1.87367 8.91127 3.37971 4.27305 9.21348C3.49628 9.8529 3 10.8209 3 11.9035C3 13.8286 4.56403 15.3882 6.49516 15.3882C8.42589 15.3882 9.99453 13.8286 9.99453 11.9036C9.99453 10.5887 9.2614 9.44684 8.18314 8.85328C12.3627 5.83662 19.0793 5.53041 23.5483 10.6467C23.8401 10.9803 24.1437 11.2981 24.4602 11.6047C22.9776 14.224 22.2068 17.446 22.6325 21.141L25.4621 23C24.4571 19.0076 24.966 15.7181 26.3246 13.1401C29.914 15.751 34.3964 17.0153 38.1946 17.0015C40.6248 16.9924 42.8205 16.49 44.3555 15.1999C45.8906 13.9093 46.465 11.6765 45.5877 9.35669C44.4794 6.42651 41.9633 4.68711 39.1514 4.17689C38.4487 4.04927 37.7287 3.99253 36.9953 4.00078L36.9956 4.00118ZM38.7123 6.58898C38.1758 6.49176 37.6103 6.44525 37.0245 6.45376C35.2667 6.47944 33.3373 6.98194 31.5617 7.94002C30.1254 8.71544 28.7912 9.76786 27.6969 11.0847C30.8388 13.3652 34.9215 14.5651 38.1825 14.553C40.2494 14.5454 41.9297 14.0353 42.7703 13.3288C43.6112 12.622 43.9103 11.8665 43.2879 10.2208C42.4849 8.09803 40.8584 6.9784 38.7123 6.58898Z" fill="#346A3A"/>
<circle cx="5.32281" cy="5.32281" r="5.32281" transform="matrix(-0.999541 -0.0302997 -0.0302997 0.999541 37.6765 17.1008)" fill="#896DC6"/>
<circle cx="5.32281" cy="5.32281" r="5.32281" transform="matrix(-0.999541 -0.0302997 -0.0302997 0.999541 30.0144 18.8973)" fill="#544081"/>
<circle cx="5.32281" cy="5.32281" r="5.32281" transform="matrix(-0.999541 -0.0302997 -0.0302997 0.999541 34.7458 26.1644)" fill="#694AAA"/>
<circle cx="5.32281" cy="5.32281" r="5.32281" transform="matrix(-0.999541 -0.0302997 -0.0302997 0.999541 32.1897 35.8702)" fill="#544081"/>
<circle cx="5.32281" cy="5.32281" r="5.32281" transform="matrix(-0.999541 -0.0302997 -0.0302997 0.999541 21.3083 21.6764)" fill="#694AAA"/>
<circle cx="5.32281" cy="5.32281" r="5.32281" transform="matrix(-0.999541 -0.0302997 -0.0302997 0.999541 26.7175 28.4982)" fill="#896DC6"/>
</g>
<defs>
<clipPath id="clip0_217_296">
<rect width="50" height="50" fill="white"/>
</clipPath>
</defs>
</svg>
